<svg version="1.1" xmlns="http://www.w3.org/2000/svg" xmlns:xlink="http://www.w3.org/1999/xlink" x="0px" y="0px"
	 width="485.211px" height="485.21px" viewBox="0 0 485.211 485.21" fill="#fff" xml:space="preserve">
<g>
	<path d="M485.211,30.326v424.56H0V30.326H485.211z M303.255,90.977
		h60.653V60.65h-60.653V90.977z M212.282,90.977h60.65V60.65h-60.65V90.977z M121.304,90.977h60.651V60.65h-60.651V90.977z
		 M30.327,90.977h60.651V60.65H30.327V90.977z M90.978,394.236H30.327v30.322h60.651V394.236z M181.955,394.236h-60.651v30.322
		h60.651V394.236z M272.933,394.236h-60.65v30.322h60.65V394.236z M363.908,394.236h-60.653v30.322h60.653V394.236z
		 M454.889,394.236h-60.653v30.322h60.653V394.236z M454.889,121.303H30.327v242.602h424.562V121.303z M454.889,60.65h-60.653
		v30.327h60.653V60.65z"/>
</g>
</svg>
